<?xml version="1.0" standalone="no"?>
<!DOCTYPE svg PUBLIC "-//W3C//DTD SVG 20010904//EN"
 "http://www.w3.org/TR/2001/REC-SVG-20010904/DTD/svg10.dtd">
<svg version="1.0" xmlns="http://www.w3.org/2000/svg"
 width="300.000000pt" height="167.000000pt" viewBox="0 0 300.000000 167.000000"
 preserveAspectRatio="xMidYMid meet">
<metadata>
Created by potrace 1.10, written by Peter Selinger 2001-2011
</metadata>
<g transform="translate(0.000000,167.000000) scale(0.100000,-0.100000)"
fill="#000000" stroke="none">
<path d="M2072 840 l3 -430 428 0 428 0 2 430 2 430 -433 0 -432 0 2 -430z
m338 387 c0 -5 -5 -5 -12 -1 -7 4 -8 3 -4 -4 4 -6 13 -9 21 -5 22 8 18 -2 -11
-34 -18 -18 -28 -24 -31 -15 -3 6 -11 12 -18 12 -7 0 -26 7 -41 15 -33 17 -74
20 -74 5 0 -18 -30 -11 -31 8 0 10 -3 12 -6 5 -2 -7 -9 -13 -15 -13 -6 0 -8 6
-5 14 4 9 -1 16 -10 18 -9 2 40 3 110 3 70 0 127 -4 127 -8z m110 3 c0 -4 7
-7 15 -7 8 0 12 3 10 7 -8 14 329 11 345 -3 13 -10 14 -38 10 -175 l-5 -162
-70 46 c-92 61 -92 61 -69 78 10 8 16 18 11 22 -4 4 -7 2 -7 -4 0 -7 -5 -12
-11 -12 -6 0 -9 9 -6 20 5 21 -2 23 -65 22 -22 0 -28 5 -33 31 -3 18 -11 52
-17 76 -9 36 -13 40 -19 24 -9 -25 -23 -160 -16 -153 3 3 9 32 12 65 11 90 17
82 12 -14 -3 -68 -2 -81 8 -68 17 24 24 21 20 -8 -1 -14 2 -25 6 -25 5 0 9 14
9 31 0 16 4 28 9 25 5 -3 7 -19 6 -36 -1 -17 2 -33 7 -36 6 -4 8 9 5 35 -3 28
-1 41 7 38 10 -3 16 -105 8 -134 -7 -23 -21 -3 -16 22 2 14 1 25 -4 25 -5 0
-10 -21 -11 -47 -1 -27 -3 -61 -4 -77 -1 -16 4 -31 11 -33 7 -3 10 1 6 11 -3
9 -1 16 4 16 7 0 11 -27 10 -70 -1 -46 -5 -69 -12 -67 -13 5 -15 57 -3 74 6 9
1 16 -17 23 -23 8 -25 14 -21 45 2 19 0 35 -5 35 -10 0 -14 -21 -11 -49 2 -7
-4 -11 -11 -9 -7 3 -13 12 -13 21 0 9 -9 23 -19 30 -11 8 -16 19 -12 25 3 6 2
13 -4 17 -9 5 -15 -22 -11 -47 1 -9 -23 -11 -31 -2 -4 3 -2 19 2 35 5 17 5 29
-1 29 -5 0 -9 -5 -9 -11 0 -6 -6 -9 -12 -6 -7 2 -12 11 -10 21 2 9 -2 16 -8
16 -5 0 -9 -3 -9 -7 1 -5 0 -11 -1 -15 -1 -5 -3 -11 -5 -15 -10 -37 -22 -55
-30 -44 -4 7 -4 16 1 20 5 3 9 20 10 36 1 17 4 40 8 53 5 13 3 22 -3 22 -6 0
-12 -7 -12 -15 -2 -16 -5 -32 -9 -40 -1 -3 -3 -9 -4 -14 -2 -19 -13 -21 -26
-6 -9 11 -9 15 -1 15 7 0 10 4 6 9 -3 5 5 36 17 68 12 32 22 60 23 63 0 3 6
20 14 38 16 38 34 43 25 7 -4 -15 -2 -25 5 -25 6 0 11 5 11 11 0 5 5 7 10 4 6
-4 8 -10 5 -15 -3 -5 -1 -12 5 -15 6 -4 9 -3 8 2 -2 7 4 27 28 103 5 13 6 13
14 0 8 -12 10 -10 10 7 0 29 -23 21 -38 -13 -7 -14 -20 -24 -32 -24 -26 0 -82
61 -69 76 9 11 69 15 69 4z m-344 -27 c24 -16 43 -34 44 -40 0 -7 4 -13 8 -13
12 0 52 -39 52 -50 0 -6 -15 -10 -33 -10 -26 0 -37 -6 -47 -25 -7 -14 -17 -25
-22 -25 -13 0 -9 17 8 34 14 15 14 16 -5 16 -11 0 -25 -9 -31 -19 -13 -25 -13
-31 3 -31 6 0 24 -6 39 -14 56 -29 100 -39 109 -25 4 7 11 10 16 6 4 -5 3 -11
-2 -15 -6 -4 -20 -29 -33 -55 -12 -26 -26 -46 -31 -43 -4 3 -22 -10 -40 -29
-17 -19 -35 -35 -40 -35 -5 0 -12 -8 -15 -17 -8 -20 38 -62 68 -63 18 0 19 1
1 20 -10 11 -15 23 -11 28 4 4 14 -1 21 -11 9 -12 15 -14 20 -7 5 8 10 8 20 0
9 -7 15 -7 19 -1 4 5 -1 14 -9 19 -20 10 -10 62 11 62 16 0 19 -16 4 -25 -20
-13 -10 -35 16 -35 20 0 25 4 20 16 -9 23 4 64 20 64 8 0 14 -7 14 -15 0 -8
-4 -15 -10 -15 -5 0 -10 -15 -9 -32 0 -18 3 -26 6 -18 8 21 25 30 45 24 9 -2
19 0 23 6 3 5 11 10 17 10 11 0 4 -102 -8 -122 -4 -6 -3 -8 3 -5 6 4 10 -5 11
-21 0 -15 2 -43 4 -62 3 -19 1 -45 -4 -58 -5 -15 -4 -21 2 -17 6 3 10 14 10
23 0 13 3 12 16 -6 8 -12 12 -27 8 -33 -4 -8 -9 -7 -15 2 -5 8 -9 10 -9 4 0
-5 4 -16 9 -23 7 -11 9 -11 14 2 4 9 13 16 21 16 9 0 12 7 9 20 -4 13 4 29 25
48 19 18 32 42 36 69 4 23 13 49 20 58 12 16 15 14 34 -17 12 -20 22 -40 22
-47 0 -6 5 -11 10 -11 6 0 10 -7 10 -15 0 -7 7 -18 16 -23 11 -6 13 -11 5 -16
-7 -5 -2 -15 14 -30 14 -13 25 -30 25 -38 0 -9 9 -27 20 -41 40 -51 31 -57
-87 -58 -60 -1 -112 0 -118 1 -10 2 -189 0 -288 -3 -31 -1 -57 2 -57 6 0 4 -8
4 -17 -1 -10 -4 -31 -8 -48 -7 l-30 1 -1 119 c-1 126 3 168 16 160 4 -2 2 19
-5 48 -7 30 -10 94 -8 152 5 116 5 147 4 233 -1 60 3 82 16 82 3 0 25 -12 49
-27z m144 -33 c0 -5 -5 -10 -11 -10 -5 0 -7 -4 -4 -10 3 -5 -1 -10 -9 -10 -18
0 -19 2 -10 24 7 17 34 22 34 6z m150 -11 c0 -6 -5 -19 -11 -30 -6 -11 -12
-30 -15 -42 -2 -12 -8 -23 -14 -25 -6 -2 -8 -8 -4 -13 3 -5 0 -9 -5 -9 -6 0
-11 9 -11 20 0 11 5 20 11 20 5 0 7 5 4 10 -3 6 -2 10 3 10 6 0 13 16 16 35 6
32 26 50 26 24z m-120 -9 c0 -6 -7 -13 -15 -16 -8 -4 -12 -10 -9 -15 3 -5 -2
-9 -11 -9 -14 0 -14 2 1 25 17 26 34 33 34 15z m33 -6 c9 -10 -15 -54 -30 -54
-7 0 -13 5 -13 10 0 6 5 10 11 10 5 0 7 5 4 10 -3 6 -1 10 5 10 6 0 8 5 5 10
-7 11 8 14 18 4z m32 -33 c-2 -11 -11 -31 -21 -46 -16 -25 -16 -26 4 -32 12
-3 22 -10 22 -15 0 -5 -6 -7 -12 -4 -7 3 -21 9 -30 12 -22 8 -23 18 -3 37 8 8
12 17 9 20 -8 7 14 47 26 47 5 0 7 -9 5 -19z m-115 -41 c0 -5 -5 -10 -11 -10
-5 0 -8 -4 -5 -9 9 -14 -4 -41 -20 -41 -8 0 -14 5 -14 10 0 6 5 10 10 10 6 0
9 3 8 8 0 4 2 15 6 25 9 18 26 23 26 7z m-50 -10 c0 -5 -5 -10 -11 -10 -5 0
-7 -4 -4 -10 3 -5 -1 -10 -9 -10 -18 0 -19 2 -10 24 7 17 34 22 34 6z m143
-118 c-16 -48 -43 -72 -43 -37 0 8 4 15 10 15 5 0 7 7 4 15 -4 10 0 15 11 15
14 0 15 3 5 15 -9 10 -9 15 -1 15 6 0 10 3 10 8 -3 18 2 25 11 16 6 -6 4 -28
-7 -62z m342 -21 c2 -23 0 -41 -5 -41 -4 0 -8 10 -8 23 0 12 -1 27 -2 32 -4
17 0 39 6 33 3 -4 7 -25 9 -47z m30 19 c-3 -5 0 -12 6 -16 8 -4 9 -3 5 4 -4 7
-3 12 2 12 5 0 12 -9 15 -20 4 -17 2 -20 -15 -14 -14 4 -18 2 -14 -5 4 -6 3
-11 -3 -11 -5 0 -11 8 -13 18 -6 24 3 53 13 46 5 -3 7 -9 4 -14z m-337 -58 c2
-7 -3 -12 -12 -12 -10 0 -13 -6 -10 -15 4 -8 1 -15 -5 -15 -10 0 -10 24 -2 58
2 8 25 -5 29 -16z m475 -79 c-1 -32 -3 -64 -4 -70 -3 -20 -29 -15 -29 5 0 10
-11 29 -25 42 -14 13 -23 30 -20 38 2 7 1 11 -4 8 -5 -3 -12 1 -15 10 -5 13
-1 15 24 12 17 -3 33 -1 36 4 3 5 10 6 15 3 5 -4 9 -1 9 5 0 6 3 9 8 7 4 -3 6
-31 5 -64z m-398 48 c3 -5 1 -12 -4 -16 -6 -3 -8 -12 -4 -20 3 -8 0 -15 -5
-15 -15 0 -24 18 -13 25 6 3 8 12 4 20 -6 16 12 21 22 6z m80 -40 c3 -5 1 -12
-4 -16 -6 -3 -8 -12 -4 -20 3 -8 0 -15 -5 -15 -15 0 -24 18 -13 25 6 3 8 12 4
20 -6 16 12 21 22 6z m-27 -73 c4 2 8 -1 10 -7 5 -14 -15 -15 -23 -1 -3 5 -12
7 -19 4 -17 -6 -30 11 -21 27 5 7 14 4 27 -8 11 -10 23 -17 26 -15z m-59 -14
c24 -12 30 -19 21 -28 -8 -8 -13 -7 -20 4 -5 8 -15 15 -21 15 -7 0 -14 6 -16
13 -6 16 -3 15 36 -4z m238 -23 c2 -22 -1 -31 -10 -28 -6 2 -13 18 -14 36 -2
43 21 35 24 -8z m79 24 c22 -11 30 -12 36 -2 7 11 12 3 10 -14 -1 -4 6 -6 16
-5 22 1 28 -40 24 -161 -3 -89 -4 -93 -28 -99 -40 -10 -67 22 -61 71 4 25 0
49 -8 65 -8 14 -14 38 -15 53 0 15 -9 46 -20 67 -20 39 -20 40 -1 40 10 0 31
-7 47 -15z m-338 -47 c7 -7 12 -8 12 -3 0 4 8 1 18 -8 9 -8 21 -16 27 -16 5 0
11 -4 13 -10 5 -14 -15 -14 -23 -1 -4 6 -11 7 -17 4 -6 -4 -14 0 -19 7 -4 8
-14 14 -20 14 -7 0 -14 6 -16 13 -6 15 9 16 25 0z"/>
<path d="M2570 1143 c0 -11 -3 -23 -7 -27 -11 -11 -15 -56 -4 -56 10 0 26 89
17 98 -3 3 -6 -4 -6 -15z"/>
<path d="M2135 780 c-8 -14 13 -50 30 -50 11 0 11 5 -1 30 -17 33 -20 35 -29
20z"/>
<path d="M162 693 c-13 -2 -38 -20 -57 -38 -61 -61 -57 -170 8 -219 23 -17 47
-22 133 -26 l104 -5 0 93 c0 142 -28 190 -116 196 -27 3 -59 2 -72 -1z m96
-80 c6 -10 12 -45 12 -80 l0 -63 -44 0 c-61 0 -88 24 -90 79 -1 36 4 47 28 68
32 27 71 25 94 -4z"/>
<path d="M462 680 c-58 -26 -72 -62 -72 -183 l0 -94 37 1 37 2 0 91 c1 108 15
133 77 133 33 0 38 4 48 31 6 18 11 34 11 35 0 12 -102 0 -138 -16z"/>
<path d="M675 681 c-66 -30 -95 -103 -73 -180 21 -70 50 -85 174 -91 l104 -5
0 98 c0 116 -15 158 -65 181 -43 21 -91 20 -140 -3z m106 -60 c19 -15 24 -30
27 -85 l4 -66 -51 0 c-63 0 -91 23 -91 76 0 44 15 72 43 84 33 13 43 12 68 -9z"/>
<path d="M960 689 l-35 -10 2 -136 2 -136 35 -1 35 -1 3 115 c3 110 4 115 25
118 12 2 31 -2 42 -8 19 -10 21 -20 21 -118 l0 -107 36 1 36 1 -1 111 c-2 111
-2 111 23 118 13 3 34 1 45 -6 19 -10 21 -19 21 -118 l0 -107 37 1 38 1 -4
119 c-2 65 -7 126 -12 135 -14 28 -65 42 -122 35 -60 -7 -54 -7 -132 -2 -33 3
-76 1 -95 -5z"/>
<path d="M1441 682 c-48 -24 -70 -59 -77 -117 -6 -62 15 -109 66 -143 29 -20
44 -23 88 -20 31 3 60 12 70 21 15 16 15 18 -4 38 -18 17 -24 18 -46 8 -53
-24 -117 38 -103 100 12 54 63 78 121 58 16 -6 23 -2 32 18 16 34 17 31 -19
44 -46 16 -89 14 -128 -7z"/>
<path d="M1716 690 c-58 -18 -106 -85 -106 -147 0 -41 40 -103 80 -124 94 -51
213 19 213 124 0 102 -94 176 -187 147z m98 -86 c34 -34 34 -77 1 -109 -52
-53 -135 -18 -135 56 0 72 82 104 134 53z"/>
</g>
</svg>
