<?xml version="1.0" standalone="no"?>
<!DOCTYPE svg PUBLIC "-//W3C//DTD SVG 20010904//EN"
 "http://www.w3.org/TR/2001/REC-SVG-20010904/DTD/svg10.dtd">
<svg version="1.0" xmlns="http://www.w3.org/2000/svg"
 width="300.000000pt" height="163.000000pt" viewBox="0 0 300.000000 163.000000"
 preserveAspectRatio="xMidYMid meet">
<metadata>
Created by potrace 1.10, written by Peter Selinger 2001-2011
</metadata>
<g transform="translate(0.000000,163.000000) scale(0.100000,-0.100000)"
fill="#000000" stroke="none">
<path d="M945 1463 c-92 -20 -155 -70 -211 -165 -41 -72 -42 -81 -6 -67 51 20
174 39 251 39 87 0 165 -19 205 -51 15 -12 30 -19 33 -16 11 12 -38 144 -67
179 -45 55 -145 94 -205 81z m112 -48 c20 -8 47 -27 60 -41 25 -27 57 -94 48
-102 -2 -3 -30 2 -61 11 -58 17 -137 17 -277 2 l-68 -8 20 34 c25 42 65 81
106 102 38 21 125 21 172 2z"/>
<path d="M835 1226 c-105 -20 -155 -36 -155 -47 0 -7 7 -8 18 -4 57 23 150 38
247 39 95 1 117 -2 162 -22 28 -13 61 -35 74 -48 27 -29 39 -31 39 -5 0 18
-47 54 -105 80 -43 19 -197 23 -280 7z"/>
<path d="M845 1185 c-5 -2 -45 -11 -88 -21 -43 -9 -81 -22 -84 -27 -4 -6 3 -8
18 -3 205 57 363 43 461 -43 41 -36 48 -38 48 -13 -1 22 -74 77 -130 97 -37
13 -194 20 -225 10z"/>
<path d="M855 1144 c-83 -12 -175 -38 -175 -50 0 -10 9 -10 43 3 29 11 78 16
157 17 129 1 173 -12 243 -74 38 -33 61 -34 41 -2 -18 29 -93 81 -132 91 -47
13 -138 20 -177 15z"/>
<path d="M389 1114 c-65 -19 -139 -72 -161 -114 -53 -101 11 -215 159 -282 77
-34 90 -36 71 -5 -25 39 -47 104 -58 170 -14 87 6 153 62 208 l40 39 -33 -1
c-19 0 -55 -7 -80 -15z m11 -54 c-5 -11 -15 -29 -21 -41 -15 -30 -12 -156 6
-213 8 -27 13 -51 11 -53 -7 -7 -53 16 -85 43 -37 31 -70 95 -71 134 0 14 8
40 18 57 19 37 96 91 130 92 19 1 21 -2 12 -19z"/>
<path d="M487 1071 c-43 -46 -70 -111 -53 -128 3 -4 6 5 6 19 0 30 36 85 82
127 18 17 28 31 22 31 -6 0 -32 -22 -57 -49z"/>
<path d="M537 1069 c-50 -41 -77 -96 -77 -157 0 -50 25 -138 55 -188 9 -16 13
-20 9 -9 -62 171 -66 204 -33 272 12 24 37 56 58 70 53 40 57 43 40 43 -8 0
-31 -14 -52 -31z"/>
<path d="M825 1094 c-11 -2 -46 -9 -78 -16 -35 -6 -54 -15 -49 -20 5 -5 28 -4
56 3 26 6 83 10 129 7 94 -5 164 -31 214 -80 29 -28 33 -30 39 -13 16 42 -118
114 -223 120 -37 2 -77 2 -88 -1z"/>
<path d="M564 1042 c-70 -60 -88 -124 -60 -213 19 -61 46 -122 52 -117 2 3 -8
32 -23 64 -39 84 -38 157 1 209 16 21 42 45 57 54 16 9 29 19 29 24 0 15 -26
5 -56 -21z"/>
<path d="M758 1043 c-16 -2 -28 -10 -28 -17 0 -9 23 -11 90 -8 105 5 173 -12
233 -59 31 -26 38 -28 43 -14 8 19 -11 35 -81 72 -41 21 -65 26 -140 29 -49 1
-102 0 -117 -3z"/>
<path d="M581 1004 c-66 -59 -75 -122 -31 -221 10 -24 23 -43 28 -43 5 0 -1
21 -14 47 -44 86 -24 175 48 218 28 16 37 35 18 35 -5 0 -28 -16 -49 -36z"/>
<path d="M596 967 c-34 -37 -41 -57 -36 -115 2 -32 32 -100 37 -85 2 6 -3 25
-11 42 -28 54 -13 121 35 155 12 8 19 20 17 28 -4 9 -17 0 -42 -25z"/>
<path d="M825 965 c39 -19 92 -39 119 -44 50 -9 116 -4 116 9 0 4 -23 20 -52
35 -45 25 -64 29 -152 32 l-101 3 70 -35z m123 5 c6 0 12 -5 12 -10 0 -12 -50
-2 -65 13 -7 6 -2 8 15 3 14 -3 31 -6 38 -6z"/>
<path d="M612 928 c-22 -35 -28 -81 -16 -112 12 -31 22 -15 34 52 16 88 10
106 -18 60z"/>
<path d="M1315 865 c9 -104 -8 -212 -45 -293 -20 -43 -25 -62 -16 -62 16 0 50
76 67 146 16 69 16 261 0 277 -10 10 -11 -4 -6 -68z"/>
<path d="M1366 863 c9 -116 -9 -222 -61 -347 -8 -18 -5 -19 43 -13 121 14 186
83 213 221 21 112 -34 179 -174 210 l-28 7 7 -78z m108 8 c41 -27 55 -57 56
-117 0 -72 -46 -162 -99 -192 -46 -26 -86 -30 -77 -7 22 58 36 147 37 234 l2
101 26 0 c14 0 39 -9 55 -19z"/>
<path d="M1267 842 c7 -101 -6 -173 -43 -250 -26 -53 -25 -84 2 -48 46 63 76
233 60 339 -12 80 -25 52 -19 -41z"/>
<path d="M1219 920 c0 -3 -1 -57 -2 -120 -2 -105 -5 -121 -30 -170 -16 -31
-24 -57 -19 -62 12 -12 35 24 57 88 21 59 26 237 7 256 -7 7 -12 10 -13 8z"/>
<path d="M1166 892 c-3 -4 0 -28 5 -52 12 -52 4 -107 -24 -173 -14 -35 -17
-51 -9 -59 18 -18 53 76 59 154 8 96 -9 165 -31 130z"/>
<path d="M1133 869 c-7 -7 -10 -29 -6 -58 3 -29 -1 -63 -11 -90 -20 -58 -5
-94 17 -41 21 51 28 109 20 158 -6 33 -11 40 -20 31z"/>
<path d="M1094 815 c-5 -16 -9 -36 -8 -42 1 -7 2 -25 3 -40 1 -24 3 -26 12
-10 5 9 9 41 7 70 -3 50 -3 51 -14 22z"/>
<path d="M2461 821 c-36 -10 -64 -52 -56 -84 7 -27 30 -49 95 -90 27 -18 35
-29 35 -52 0 -28 -3 -30 -42 -33 -23 -2 -51 2 -63 8 -18 9 -20 8 -20 -13 0
-20 6 -25 38 -31 87 -13 150 32 138 98 -5 28 -17 41 -71 75 -70 43 -83 71 -44
91 19 11 44 9 83 -6 11 -4 16 0 16 14 0 27 -54 39 -109 23z"/>
<path d="M1690 675 l0 -145 26 0 c25 0 26 1 22 70 -2 39 0 69 5 67 4 -1 26
-31 50 -67 41 -63 44 -65 87 -68 l46 -3 11 44 12 45 51 0 51 0 11 -44 c10 -38
16 -44 38 -44 l26 0 -49 146 c-47 139 -51 145 -75 142 -23 -3 -29 -15 -70
-136 -24 -73 -48 -132 -52 -130 -4 2 -29 34 -54 71 l-45 69 37 51 c56 76 56
77 30 77 -17 0 -33 -15 -62 -60 -21 -33 -41 -60 -45 -60 -3 0 -4 27 -3 60 4
59 3 60 -22 60 l-26 0 0 -145z m333 35 c10 -33 17 -62 17 -65 0 -3 -19 -5 -41
-5 -38 0 -41 2 -34 23 4 12 12 41 18 65 5 23 13 42 17 42 4 0 14 -27 23 -60z"/>
<path d="M2152 703 c2 -65 10 -128 16 -140 26 -48 147 -50 172 -3 5 10 10 73
10 139 0 119 0 121 -22 121 -23 0 -23 -2 -20 -111 4 -124 -8 -159 -53 -159
-44 0 -55 33 -55 157 l0 113 -26 0 -26 0 4 -117z"/>
<path d="M2600 805 c0 -11 11 -15 41 -15 l41 0 -3 -130 -4 -130 25 0 25 0 -3
130 -3 130 40 0 c30 0 41 4 41 15 0 12 -18 15 -100 15 -82 0 -100 -3 -100 -15z"/>
<path d="M732 711 c-48 -13 -48 -17 0 -44 63 -37 128 -51 210 -44 78 7 86 10
69 31 -36 44 -200 77 -279 57z m173 -45 c25 -11 27 -15 13 -21 -20 -8 -125 12
-133 26 -9 14 86 10 120 -5z"/>
<path d="M660 681 c0 -13 55 -53 110 -82 56 -28 179 -38 245 -19 47 13 52 19
34 37 -7 7 -24 7 -56 -3 -90 -27 -198 -9 -280 47 -45 31 -53 34 -53 20z"/>
<path d="M626 671 c-7 -11 62 -72 119 -106 59 -35 151 -57 210 -50 84 11 125
26 125 47 0 22 4 22 -54 2 -34 -12 -70 -15 -129 -12 -92 5 -159 33 -227 94
-21 19 -41 31 -44 25z"/>
<path d="M600 651 c0 -25 102 -111 173 -145 86 -43 163 -54 246 -36 70 15 83
22 76 42 -5 13 -12 12 -58 -3 -69 -24 -144 -24 -219 2 -72 24 -105 45 -170
108 -27 25 -48 40 -48 32z"/>
<path d="M570 632 c0 -5 29 -39 65 -75 118 -119 262 -168 408 -138 45 10 57
16 57 31 0 18 -2 18 -46 3 -32 -11 -70 -14 -132 -11 -116 6 -196 43 -287 134
-36 36 -65 61 -65 56z"/>
<path d="M559 592 c17 -32 107 -118 161 -155 95 -64 216 -90 333 -71 23 4 37
12 37 21 0 11 -6 13 -22 9 -149 -44 -313 8 -446 141 -40 40 -68 65 -63 55z"/>
<path d="M484 551 c-74 -112 -13 -242 154 -325 157 -79 297 -79 376 0 22 23
66 93 66 106 0 2 -53 3 -118 3 -112 0 -120 1 -185 33 -81 40 -173 114 -218
177 -18 25 -36 45 -41 45 -4 0 -19 -18 -34 -39z m91 -72 c104 -107 249 -179
362 -179 74 0 88 -8 67 -38 -41 -58 -147 -78 -255 -46 -180 53 -296 180 -255
279 8 19 19 35 23 35 5 0 31 -23 58 -51z"/>
</g>
</svg>
