<svg version="1.1" id="Layer_1" xmlns="http://www.w3.org/2000/svg" xmlns:xlink="http://www.w3.org/1999/xlink" x="0px" y="0px"
	 width="100%" viewBox="0 0 1350 950" enable-background="new 0 0 1350 950" xml:space="preserve">
<path fill="#000000" opacity="1.000000" stroke="none" 
	d="
M762.000000,951.000000 
	C508.000000,951.000000 254.500000,951.000000 1.000000,951.000000 
	C1.000000,634.333313 1.000000,317.666656 1.000000,1.000000 
	C451.000000,1.000000 901.000000,1.000000 1351.000000,1.000000 
	C1351.000000,317.666656 1351.000000,634.333313 1351.000000,951.000000 
	C1154.833374,951.000000 958.666687,951.000000 762.000000,951.000000 
M1128.034668,302.959351 
	C1128.034668,302.959351 1128.094971,302.940247 1127.818726,302.350372 
	C1126.897217,301.866486 1125.975708,301.382568 1125.034668,300.958618 
	C1125.034668,300.958618 1125.094971,300.940247 1124.818726,300.350433 
	C1123.897217,299.866516 1122.975708,299.382629 1122.034424,298.958649 
	C1122.034424,298.958649 1122.094849,298.940063 1121.795654,298.325928 
	C1120.215332,297.516968 1118.634888,296.708008 1117.034546,295.958923 
	C1117.034546,295.958923 1117.094849,295.940094 1116.777588,295.307159 
	C1105.564453,289.156281 1093.821533,284.529510 1080.685913,282.299652 
	C1079.790771,282.255310 1078.895508,282.210999 1077.267944,282.033905 
	C1076.526001,281.984283 1075.783936,281.934631 1074.547607,281.225220 
	C1072.031860,281.205688 1069.516113,281.186188 1066.267944,281.033905 
	C1065.526001,280.984253 1064.783936,280.934631 1063.512573,280.208435 
	C1058.341797,280.194519 1053.171143,280.180603 1047.296997,280.056763 
	C1046.198120,280.426727 1045.099121,280.796692 1043.150513,281.034882 
	C1041.433838,281.078796 1039.717041,281.122742 1037.262695,281.059540 
	C1035.851929,281.428558 1034.441040,281.797577 1032.515381,282.066620 
	C1032.343628,282.099976 1032.171997,282.133301 1031.202637,282.072205 
	C1029.945190,282.381744 1028.695312,282.727997 1027.428955,282.995361 
	C1007.948242,287.108063 990.209290,294.887115 974.414612,308.122772 
	C973.927673,308.711792 973.440735,309.300812 972.319397,309.994232 
	C971.529480,310.627625 970.739563,311.260986 969.352051,312.178070 
	C967.552368,314.082245 965.752686,315.986450 963.377319,318.206390 
	C962.619385,318.786835 961.861450,319.367279 961.021484,319.020172 
	C961.021484,271.448730 961.021484,223.877304 961.021484,176.279358 
	C944.666809,176.279358 929.079529,176.279358 913.326782,176.279358 
	C913.326782,292.905945 913.326782,409.252960 913.326782,525.606812 
	C926.704041,525.606812 939.750671,525.606812 952.557983,525.606812 
	C954.137573,514.440308 955.657471,503.695892 957.293335,492.131348 
	C959.485657,493.521057 960.685425,494.281586 961.993225,495.676605 
	C962.626953,496.467834 963.260681,497.259094 964.166687,498.635345 
	C965.821289,500.209381 967.475891,501.783386 969.607239,503.868195 
	C970.724060,504.617035 971.840881,505.365845 973.144897,506.613708 
	C973.809143,507.191101 974.473450,507.768494 975.671570,508.872559 
	C986.299255,516.175659 997.330322,522.662292 1010.508057,525.933411 
	C1010.677551,525.900024 1010.847107,525.866699 1011.610718,526.131226 
	C1012.406982,526.365295 1013.203247,526.599304 1014.508057,526.933411 
	C1014.677551,526.900024 1014.847107,526.866699 1015.610718,527.131226 
	C1016.406982,527.365295 1017.203247,527.599304 1018.508057,527.933411 
	C1018.677551,527.900024 1018.847107,527.866699 1019.610718,528.131226 
	C1020.406982,528.365234 1021.203247,528.599304 1022.731323,528.966187 
	C1023.472778,529.014893 1024.214233,529.063599 1025.240234,529.652832 
	C1025.826660,529.713013 1026.413208,529.773193 1027.817993,529.965149 
	C1029.197266,530.014221 1030.576416,530.063293 1032.240234,530.652832 
	C1032.826660,530.713013 1033.413208,530.773193 1034.888184,530.965149 
	C1037.577393,531.014221 1040.266479,531.063232 1043.240234,531.652832 
	C1043.826660,531.713013 1044.413208,531.773193 1045.925903,531.965210 
	C1057.048340,530.994873 1068.318726,530.851562 1079.264526,528.893616 
	C1108.068115,523.741455 1132.185669,509.823303 1150.453247,486.878021 
	C1167.069702,466.006836 1175.365967,441.769775 1175.900757,415.105927 
	C1176.115356,404.415405 1175.222290,393.702667 1174.950317,382.398315 
	C1174.668945,381.915558 1174.387573,381.432800 1174.021851,380.161316 
	C1173.958984,379.107574 1173.896118,378.053802 1173.947510,376.348480 
	C1173.576172,375.577759 1173.204834,374.807037 1172.933472,373.518188 
	C1172.900146,373.345490 1172.866699,373.172760 1172.947510,372.348480 
	C1172.576172,371.577759 1172.204834,370.807037 1171.933472,369.518188 
	C1171.900146,369.345490 1171.866699,369.172760 1171.947510,368.348511 
	C1171.576172,367.577789 1171.204712,366.807068 1170.933472,365.518188 
	C1170.900146,365.345490 1170.866699,365.172760 1170.943115,364.296661 
	C1170.330811,362.847778 1169.718506,361.398895 1169.019653,359.280670 
	C1168.718018,358.506439 1168.416504,357.732239 1168.008911,356.361694 
	C1167.707886,355.891113 1167.406982,355.420532 1167.019409,354.280579 
	C1166.717896,353.506409 1166.416382,352.732208 1166.008911,351.361725 
	C1165.707886,350.891113 1165.406860,350.420532 1165.017944,349.195618 
	C1164.898804,348.555573 1164.915161,347.849731 1164.640869,347.285126 
	C1157.328003,332.238068 1147.900146,318.773407 1134.754395,307.340210 
	C1134.164917,307.165649 1133.575439,306.991089 1132.741821,306.264099 
	C1131.842651,305.471924 1130.943481,304.679749 1129.772583,303.352814 
	C1129.200073,303.201691 1128.627441,303.050568 1128.034668,302.959351 
M602.500000,636.000000 
	C617.399536,636.000000 632.299072,636.000000 648.216309,636.000000 
	C646.327820,633.994446 645.335388,632.695190 644.109314,631.677246 
	C634.750610,623.907166 625.108459,616.460205 616.013184,608.395386 
	C603.014404,596.869263 590.150452,585.165710 577.702026,573.051697 
	C565.317993,561.000366 553.449768,548.414368 541.482788,535.940552 
	C530.004883,523.976379 518.649353,511.893890 507.318512,499.789886 
	C499.743530,491.697998 492.333740,483.451721 484.800507,475.320435 
	C471.633484,461.108063 458.595306,446.770905 445.187836,432.788391 
	C433.834381,420.948059 422.226959,409.334900 410.381317,397.987183 
	C397.595123,385.738464 384.872528,373.348389 371.271423,362.043579 
	C352.621887,346.542603 332.862305,332.535126 311.560028,320.680939 
	C290.665863,309.053833 268.853638,299.923920 245.733582,294.108459 
	C233.865326,291.123199 221.771393,288.561676 209.624512,287.298126 
	C198.695007,286.161194 187.553909,287.058411 176.339432,287.058411 
	C176.339432,402.910492 176.339432,519.267944 176.339432,636.000000 
	C318.285675,636.000000 459.892853,636.000000 602.500000,636.000000 
M680.500366,601.000000 
	C673.930054,601.000000 667.359680,601.000000 660.789368,601.000000 
	C660.701721,601.482971 660.614014,601.965942 660.526367,602.448914 
	C809.119751,722.880005 980.460083,776.600830 1170.642334,776.292847 
	C1170.642334,717.397400 1170.642334,659.367554 1170.642334,601.000000 
	C1007.356689,601.000000 844.428467,601.000000 680.500366,601.000000 
M666.914856,281.094238 
	C666.142883,281.379181 665.387390,281.852234 664.596497,281.921448 
	C646.875671,283.471771 630.287537,288.702637 614.928345,297.602509 
	C602.617920,304.735748 592.606445,314.178741 585.928101,327.041504 
	C578.160767,342.001770 575.548340,357.771271 578.172852,374.263184 
	C579.082031,379.976044 580.988403,385.782349 583.651733,390.917053 
	C591.979126,406.971619 606.793457,414.642944 623.391541,418.846069 
	C634.768494,421.727051 646.494385,423.444794 658.161255,424.911407 
	C672.357910,426.696075 686.637634,427.945923 700.916199,428.915497 
	C714.068848,429.808624 727.051208,431.349976 739.437134,436.042786 
	C748.022888,439.295837 754.670898,444.928864 755.816833,454.487457 
	C756.924133,463.722961 753.304321,471.256622 745.706665,477.162567 
	C733.207886,486.878387 718.471436,488.904205 703.555481,489.886688 
	C686.076294,491.038055 669.236633,487.362549 653.021973,480.918152 
	C635.494934,473.952148 620.319031,463.586731 607.591492,448.555450 
	C596.562561,459.032593 585.604065,469.442871 574.661865,479.837646 
	C586.066040,492.679810 598.487915,503.256622 612.828369,511.300659 
	C642.826416,528.127563 675.136597,533.655884 709.291443,531.183472 
	C725.666748,529.998108 741.487976,527.190186 756.596680,520.928650 
	C773.336853,513.990906 787.052307,503.279602 795.521057,486.880981 
	C802.710266,472.959991 805.088257,458.286407 803.165649,442.526062 
	C800.504700,420.712585 788.707581,406.542267 769.151672,397.956177 
	C751.475464,390.195404 732.543640,388.123840 713.674866,386.102509 
	C697.135681,384.330688 680.426392,383.978058 663.961365,381.748779 
	C654.554321,380.475128 645.192993,377.425842 636.350586,373.844177 
	C628.273621,370.572571 623.475769,360.682831 624.314514,354.197021 
	C625.789246,342.793121 632.386536,335.516449 642.337097,330.965881 
	C664.391541,320.880096 687.558777,320.888672 710.856995,324.519104 
	C730.553955,327.588379 748.041565,335.762970 762.439819,349.877594 
	C773.442383,339.364899 784.226379,329.061005 795.466187,318.321594 
	C790.624756,314.300262 786.407593,310.326752 781.733826,306.993500 
	C755.549072,288.318817 725.520691,281.782593 694.141663,280.122253 
	C685.412903,279.660370 676.605774,280.679810 666.914856,281.094238 
M879.000000,316.500000 
	C879.000000,269.752686 879.000000,223.005371 879.000000,176.308304 
	C862.615479,176.308304 847.024353,176.308304 831.395752,176.308304 
	C831.395752,292.990814 831.395752,409.364594 831.395752,525.691650 
	C847.384644,525.691650 862.975769,525.691650 879.000000,525.691650 
	C879.000000,456.089447 879.000000,386.794708 879.000000,316.500000 
z"/>
<path fill="#0014DC" opacity="1.000000" stroke="none" 
	d="
M602.000000,636.000000 
	C459.892853,636.000000 318.285675,636.000000 176.339432,636.000000 
	C176.339432,519.267944 176.339432,402.910492 176.339432,287.058411 
	C187.553909,287.058411 198.695007,286.161194 209.624512,287.298126 
	C221.771393,288.561676 233.865326,291.123199 245.733582,294.108459 
	C268.853638,299.923920 290.665863,309.053833 311.560028,320.680939 
	C332.862305,332.535126 352.621887,346.542603 371.271423,362.043579 
	C384.872528,373.348389 397.595123,385.738464 410.381317,397.987183 
	C422.226959,409.334900 433.834381,420.948059 445.187836,432.788391 
	C458.595306,446.770905 471.633484,461.108063 484.800507,475.320435 
	C492.333740,483.451721 499.743530,491.697998 507.318512,499.789886 
	C518.649353,511.893890 530.004883,523.976379 541.482788,535.940552 
	C553.449768,548.414368 565.317993,561.000366 577.702026,573.051697 
	C590.150452,585.165710 603.014404,596.869263 616.013184,608.395386 
	C625.108459,616.460205 634.750610,623.907166 644.109314,631.677246 
	C645.335388,632.695190 646.327820,633.994446 648.216309,636.000000 
	C632.299072,636.000000 617.399536,636.000000 602.000000,636.000000 
z"/>
<path fill="#0014DC" opacity="1.000000" stroke="none" 
	d="
M681.000305,601.000000 
	C844.428467,601.000000 1007.356689,601.000000 1170.642334,601.000000 
	C1170.642334,659.367554 1170.642334,717.397400 1170.642334,776.292847 
	C980.460083,776.600830 809.119751,722.880005 660.526367,602.448914 
	C660.614014,601.965942 660.701721,601.482971 660.789368,601.000000 
	C667.359680,601.000000 673.930054,601.000000 681.000305,601.000000 
z"/>
<path fill="#0014DC" opacity="1.000000" stroke="none" 
	d="
M1011.016602,525.833374 
	C1010.847107,525.866699 1010.677551,525.900024 1010.060059,525.615601 
	C1008.057861,524.387695 1006.552124,523.379089 1004.940796,522.584778 
	C998.122498,519.223755 991.282776,515.905762 984.430115,512.615112 
	C981.357727,511.139771 978.236694,509.765839 975.137695,508.345886 
	C974.473450,507.768494 973.809143,507.191101 972.940369,506.012817 
	C971.534058,504.727051 970.332275,504.042236 969.130493,503.357391 
	C967.475891,501.783386 965.821289,500.209381 964.136963,498.085938 
	C963.366638,496.705048 962.625916,495.873566 961.885193,495.042114 
	C960.685425,494.281586 959.485657,493.521057 957.293335,492.131348 
	C955.657471,503.695892 954.137573,514.440308 952.557983,525.606812 
	C939.750671,525.606812 926.704041,525.606812 913.326782,525.606812 
	C913.326782,409.252960 913.326782,292.905945 913.326782,176.279358 
	C929.079529,176.279358 944.666809,176.279358 961.021484,176.279358 
	C961.021484,223.877304 961.021484,271.448730 960.956909,319.729614 
	C961.806152,321.003448 962.719910,321.567871 963.633728,322.132263 
	C963.740173,320.718384 963.846619,319.304535 963.953003,317.890656 
	C965.752686,315.986450 967.552368,314.082245 969.920532,312.185089 
	C971.541809,312.162842 972.594727,312.133545 973.647583,312.104248 
	C973.416321,311.366119 973.185059,310.627960 972.953735,309.889801 
	C973.440735,309.300812 973.927673,308.711792 974.990479,308.165375 
	C977.084778,307.930817 978.912109,308.104584 980.075012,307.308228 
	C995.262695,296.907135 1011.975830,290.033661 1029.667236,285.274109 
	C1030.652222,285.009094 1031.231934,283.237152 1032.000366,282.166626 
	C1032.171997,282.133301 1032.343628,282.099976 1032.969116,282.356750 
	C1035.961304,285.285126 1037.549438,284.984222 1038.000366,281.166656 
	C1039.717041,281.122742 1041.433838,281.078796 1043.699951,281.375000 
	C1047.135132,285.160522 1047.543091,282.603729 1048.000366,280.166656 
	C1053.171143,280.180603 1058.341797,280.194519 1063.835327,280.832520 
	C1064.665161,281.979858 1065.172119,282.503143 1065.679199,283.026367 
	C1066.119507,282.406464 1066.559937,281.786530 1067.000366,281.166626 
	C1069.516113,281.186188 1072.031860,281.205688 1074.852783,281.840881 
	C1075.665161,282.979828 1076.172119,283.503113 1076.679199,284.026367 
	C1077.119507,283.406433 1077.559937,282.786530 1078.000366,282.166626 
	C1078.895508,282.210999 1079.790771,282.255310 1080.920654,282.881775 
	C1083.052856,284.422455 1084.865356,285.640900 1086.862549,286.295776 
	C1096.913452,289.591400 1107.012573,292.739929 1117.094849,295.940094 
	C1117.094849,295.940094 1117.034546,295.958923 1117.198242,296.233215 
	C1118.939575,297.318359 1120.517212,298.129211 1122.094849,298.940063 
	C1122.094849,298.940063 1122.034424,298.958649 1122.211670,299.200195 
	C1123.290894,299.941254 1124.192871,300.440765 1125.094971,300.940247 
	C1125.094971,300.940247 1125.034668,300.958618 1125.211670,301.200195 
	C1126.290894,301.941284 1127.192871,302.440765 1128.094971,302.940247 
	C1128.094971,302.940247 1128.034668,302.959351 1128.139893,303.126282 
	C1128.844849,303.491333 1129.444580,303.689484 1130.044312,303.887604 
	C1130.943481,304.679749 1131.842651,305.471924 1132.964600,306.744781 
	C1133.806396,307.446198 1134.425415,307.666901 1135.044312,307.887634 
	C1147.900146,318.773407 1157.328003,332.238068 1164.640869,347.285126 
	C1164.915161,347.849731 1164.898804,348.555573 1165.004395,349.778900 
	C1165.365479,350.894135 1165.740234,351.426056 1166.114990,351.958008 
	C1166.416382,352.732208 1166.717896,353.506409 1167.005127,354.821350 
	C1167.365479,355.894104 1167.740234,356.426056 1168.114990,356.958008 
	C1168.416504,357.732239 1168.718018,358.506439 1168.956177,359.887299 
	C1169.539551,361.995972 1170.186401,363.498016 1170.833374,365.000061 
	C1170.866699,365.172760 1170.900146,365.345490 1170.799072,366.016876 
	C1171.054077,367.343719 1171.443726,368.171906 1171.833374,369.000061 
	C1171.866699,369.172760 1171.900146,369.345490 1171.799072,370.016846 
	C1172.054077,371.343719 1172.443726,372.171906 1172.833374,373.000061 
	C1172.866699,373.172760 1172.900146,373.345490 1172.799072,374.016846 
	C1173.054199,375.343719 1173.443726,376.171875 1173.833374,377.000061 
	C1173.896118,378.053802 1173.958984,379.107574 1173.991211,380.749268 
	C1174.251343,381.891510 1174.542358,382.445801 1174.833374,383.000061 
	C1175.222290,393.702667 1176.115356,404.415405 1175.900757,415.105927 
	C1175.365967,441.769775 1167.069702,466.006836 1150.453247,486.878021 
	C1132.185669,509.823303 1108.068115,523.741455 1079.264526,528.893616 
	C1068.318726,530.851562 1057.048340,530.994873 1045.348145,531.723755 
	C1044.165527,531.358948 1043.560547,531.235657 1042.955688,531.112305 
	C1040.266479,531.063232 1037.577393,531.014221 1034.329346,530.723694 
	C1033.165527,530.358948 1032.560547,530.235596 1031.955688,530.112305 
	C1030.576416,530.063293 1029.197266,530.014221 1027.294189,529.723694 
	C1026.165527,529.358948 1025.560547,529.235596 1024.955688,529.112305 
	C1024.214233,529.063599 1023.472778,529.014893 1022.223511,528.686768 
	C1020.815979,528.216003 1019.916321,528.024658 1019.016602,527.833374 
	C1018.847107,527.866699 1018.677551,527.900024 1018.111877,527.670349 
	C1016.815979,527.216003 1015.916321,527.024658 1015.016602,526.833374 
	C1014.847107,526.866699 1014.677551,526.900024 1014.111877,526.670410 
	C1012.815979,526.216064 1011.916321,526.024719 1011.016602,525.833374 
M1049.034546,325.024109 
	C1043.441040,325.347900 1037.843384,325.611511 1032.254883,326.006073 
	C1010.665161,327.530487 992.162842,335.211517 977.476624,351.831818 
	C965.841675,364.998871 960.529907,380.131348 959.922729,397.370422 
	C959.810425,400.560242 958.694946,403.714752 958.149414,407.503723 
	C958.710754,408.335846 959.272095,409.167969 959.965027,410.854004 
	C959.657471,413.864532 959.349976,416.875031 959.144531,420.551514 
	C959.468201,421.381531 959.791870,422.211517 960.029480,423.842194 
	C960.346558,425.094818 960.708862,426.337952 960.973938,427.601501 
	C964.818237,445.928558 974.414062,460.738495 988.942017,472.292084 
	C993.216553,475.691406 998.318970,478.049683 1003.305176,481.254730 
	C1003.947083,481.225403 1004.588928,481.196075 1005.871155,481.410583 
	C1006.594788,481.902069 1007.318359,482.393555 1008.288452,483.356934 
	C1012.103699,484.641327 1015.889709,486.032501 1019.766052,487.093658 
	C1020.339600,487.250671 1021.340210,485.847870 1022.591187,485.214661 
	C1022.591187,485.214661 1022.775635,485.625732 1023.141968,486.209015 
	C1024.449463,488.135925 1025.753296,489.736176 1027.751953,486.035522 
	C1029.167847,486.412567 1030.583740,486.789612 1032.143066,487.704498 
	C1033.633057,490.381287 1034.366699,489.039337 1035.924438,487.034760 
	C1040.616211,487.078735 1045.307983,487.122711 1050.249390,487.715271 
	C1053.135986,491.162506 1053.542847,488.603271 1054.793823,486.035126 
	C1055.862427,486.078979 1056.931152,486.122803 1058.239624,486.706024 
	C1060.227051,486.931671 1062.229980,487.442505 1064.199341,487.335693 
	C1075.234253,486.737061 1084.921997,482.422028 1093.721313,476.012573 
	C1094.496460,475.447968 1094.255249,473.488098 1094.812622,471.803345 
	C1094.812622,471.803345 1095.184082,471.475037 1095.930298,471.618744 
	C1097.070557,471.395325 1098.210815,471.171906 1099.351074,470.948486 
	C1098.862549,470.618164 1098.374146,470.287811 1098.177368,469.352600 
	C1100.746704,466.887573 1103.316162,464.422546 1106.609253,461.947632 
	C1109.512573,461.816040 1111.529663,461.171509 1108.971436,457.674652 
	C1108.971436,457.674652 1109.142334,457.568665 1109.965210,457.634857 
	C1112.192261,455.951233 1115.140259,454.716156 1116.516968,452.503418 
	C1121.514160,444.471771 1124.922729,435.731201 1125.269287,426.129272 
	C1125.341309,424.133423 1128.362183,421.306488 1124.034790,419.150055 
	C1124.078735,417.433502 1124.122681,415.716949 1124.804077,413.934174 
	C1125.611572,413.363953 1126.419067,412.793732 1127.226562,412.223511 
	C1126.539917,411.482269 1125.853271,410.741028 1125.034790,409.132263 
	C1125.078735,407.088318 1125.122681,405.044373 1125.707886,402.850983 
	C1128.392700,401.047943 1126.733276,400.517395 1124.231812,399.560852 
	C1124.210083,397.374054 1124.188354,395.187225 1124.719482,392.827942 
	C1127.067749,391.115479 1125.539795,390.560883 1123.367310,389.790039 
	C1123.300537,389.239868 1123.233643,388.689667 1123.732666,387.858887 
	C1123.449829,386.919281 1123.166992,385.979675 1122.364624,384.787292 
	C1122.298706,384.237854 1122.232666,383.688385 1122.803955,382.828674 
	C1123.144043,381.227936 1124.198486,379.349426 1123.702393,378.073792 
	C1121.371704,372.080505 1118.822632,366.146332 1115.890137,360.427673 
	C1114.949219,358.592804 1112.593506,357.483398 1110.415405,355.871185 
	C1110.130737,355.665161 1109.954956,355.389648 1110.102417,354.532471 
	C1109.363281,353.702362 1108.624268,352.872223 1107.288086,351.762756 
	C1104.844604,349.213318 1102.401001,346.663879 1099.882324,343.602661 
	C1099.240845,343.106781 1098.599487,342.610870 1097.364380,342.009094 
	C1096.895508,341.710938 1096.426514,341.412750 1095.812622,340.420563 
	C1088.364502,332.211487 1078.657349,328.990723 1067.508057,327.933380 
	C1067.338623,327.900024 1067.169312,327.866699 1066.770874,327.482666 
	C1066.166748,327.360321 1065.562744,327.237976 1064.168945,327.023865 
	C1063.112671,326.960358 1062.056396,326.896881 1060.770874,326.482666 
	C1060.166748,326.360321 1059.562744,326.238007 1058.092163,326.024109 
	C1056.061523,325.960510 1054.030762,325.896912 1051.770874,325.482666 
	C1051.166748,325.360321 1050.562744,325.237976 1049.034546,325.024109 
z"/>
<path fill="#0014DC" opacity="1.000000" stroke="none" 
	d="
M667.374756,281.056946 
	C676.605774,280.679810 685.412903,279.660370 694.141663,280.122253 
	C725.520691,281.782593 755.549072,288.318817 781.733826,306.993500 
	C786.407593,310.326752 790.624756,314.300262 795.466187,318.321594 
	C784.226379,329.061005 773.442383,339.364899 762.439819,349.877594 
	C748.041565,335.762970 730.553955,327.588379 710.856995,324.519104 
	C687.558777,320.888672 664.391541,320.880096 642.337097,330.965881 
	C632.386536,335.516449 625.789246,342.793121 624.314514,354.197021 
	C623.475769,360.682831 628.273621,370.572571 636.350586,373.844177 
	C645.192993,377.425842 654.554321,380.475128 663.961365,381.748779 
	C680.426392,383.978058 697.135681,384.330688 713.674866,386.102509 
	C732.543640,388.123840 751.475464,390.195404 769.151672,397.956177 
	C788.707581,406.542267 800.504700,420.712585 803.165649,442.526062 
	C805.088257,458.286407 802.710266,472.959991 795.521057,486.880981 
	C787.052307,503.279602 773.336853,513.990906 756.596680,520.928650 
	C741.487976,527.190186 725.666748,529.998108 709.291443,531.183472 
	C675.136597,533.655884 642.826416,528.127563 612.828369,511.300659 
	C598.487915,503.256622 586.066040,492.679810 574.661865,479.837646 
	C585.604065,469.442871 596.562561,459.032593 607.591492,448.555450 
	C620.319031,463.586731 635.494934,473.952148 653.021973,480.918152 
	C669.236633,487.362549 686.076294,491.038055 703.555481,489.886688 
	C718.471436,488.904205 733.207886,486.878387 745.706665,477.162567 
	C753.304321,471.256622 756.924133,463.722961 755.816833,454.487457 
	C754.670898,444.928864 748.022888,439.295837 739.437134,436.042786 
	C727.051208,431.349976 714.068848,429.808624 700.916199,428.915497 
	C686.637634,427.945923 672.357910,426.696075 658.161255,424.911407 
	C646.494385,423.444794 634.768494,421.727051 623.391541,418.846069 
	C606.793457,414.642944 591.979126,406.971619 583.651733,390.917053 
	C580.988403,385.782349 579.082031,379.976044 578.172852,374.263184 
	C575.548340,357.771271 578.160767,342.001770 585.928101,327.041504 
	C592.606445,314.178741 602.617920,304.735748 614.928345,297.602509 
	C630.287537,288.702637 646.875671,283.471771 664.596497,281.921448 
	C665.387390,281.852234 666.142883,281.379181 667.374756,281.056946 
z"/>
<path fill="#0014DC" opacity="1.000000" stroke="none" 
	d="
M879.000000,317.000000 
	C879.000000,386.794708 879.000000,456.089447 879.000000,525.691650 
	C862.975769,525.691650 847.384644,525.691650 831.395752,525.691650 
	C831.395752,409.364594 831.395752,292.990814 831.395752,176.308304 
	C847.024353,176.308304 862.615479,176.308304 879.000000,176.308304 
	C879.000000,223.005371 879.000000,269.752686 879.000000,317.000000 
z"/>
<path fill="#0014DC" opacity="1.000000" stroke="none" 
	d="
M1031.601562,282.119415 
	C1031.231934,283.237152 1030.652222,285.009094 1029.667236,285.274109 
	C1011.975830,290.033661 995.262695,296.907135 980.075012,307.308228 
	C978.912109,308.104584 977.084778,307.930817 975.257935,308.051147 
	C990.209290,294.887115 1007.948242,287.108063 1027.428955,282.995361 
	C1028.695312,282.727997 1029.945190,282.381744 1031.601562,282.119415 
z"/>
<path fill="#0014DC" opacity="1.000000" stroke="none" 
	d="
M1116.936279,295.623627 
	C1107.012573,292.739929 1096.913452,289.591400 1086.862549,286.295776 
	C1084.865356,285.640900 1083.052856,284.422455 1081.098633,283.174438 
	C1093.821533,284.529510 1105.564453,289.156281 1116.936279,295.623627 
z"/>
<path fill="#0014DC" opacity="1.000000" stroke="none" 
	d="
M975.404663,508.609222 
	C978.236694,509.765839 981.357727,511.139771 984.430115,512.615112 
	C991.282776,515.905762 998.122498,519.223755 1004.940796,522.584778 
	C1006.552124,523.379089 1008.057861,524.387695 1009.805786,525.565552 
	C997.330322,522.662292 986.299255,516.175659 975.404663,508.609222 
z"/>
<path fill="#0014DC" opacity="1.000000" stroke="none" 
	d="
M963.665161,318.048523 
	C963.846619,319.304535 963.740173,320.718384 963.633728,322.132263 
	C962.719910,321.567871 961.806152,321.003448 960.997925,320.193390 
	C961.861450,319.367279 962.619385,318.786835 963.665161,318.048523 
z"/>
<path fill="#0014DC" opacity="1.000000" stroke="none" 
	d="
M1037.631592,281.113098 
	C1037.549438,284.984222 1035.961304,285.285126 1033.226562,282.406738 
	C1034.441040,281.797577 1035.851929,281.428558 1037.631592,281.113098 
z"/>
<path fill="#0014DC" opacity="1.000000" stroke="none" 
	d="
M1047.648682,280.111694 
	C1047.543091,282.603729 1047.135132,285.160522 1044.124756,281.440918 
	C1045.099121,280.796692 1046.198120,280.426727 1047.648682,280.111694 
z"/>
<path fill="#0014DC" opacity="1.000000" stroke="none" 
	d="
M972.636597,309.942017 
	C973.185059,310.627960 973.416321,311.366119 973.647583,312.104248 
	C972.594727,312.133545 971.541809,312.162842 970.219299,312.043213 
	C970.739563,311.260986 971.529480,310.627625 972.636597,309.942017 
z"/>
<path fill="#0014DC" opacity="1.000000" stroke="none" 
	d="
M1066.634155,281.100281 
	C1066.559937,281.786530 1066.119507,282.406464 1065.679199,283.026367 
	C1065.172119,282.503143 1064.665161,281.979858 1064.100098,281.170776 
	C1064.783936,280.934631 1065.526001,280.984253 1066.634155,281.100281 
z"/>
<path fill="#0014DC" opacity="1.000000" stroke="none" 
	d="
M1077.634155,282.100281 
	C1077.559937,282.786530 1077.119507,283.406433 1076.679199,284.026367 
	C1076.172119,283.503113 1075.665161,282.979828 1075.100098,282.170776 
	C1075.783936,281.934631 1076.526001,281.984283 1077.634155,282.100281 
z"/>
<path fill="#0014DC" opacity="1.000000" stroke="none" 
	d="
M1121.945312,298.632996 
	C1120.517212,298.129211 1118.939575,297.318359 1117.208252,296.203308 
	C1118.634888,296.708008 1120.215332,297.516968 1121.945312,298.632996 
z"/>
<path fill="#0014DC" opacity="1.000000" stroke="none" 
	d="
M1170.888184,364.648376 
	C1170.186401,363.498016 1169.539551,361.995972 1168.999390,360.221985 
	C1169.718506,361.398895 1170.330811,362.847778 1170.888184,364.648376 
z"/>
<path fill="#0014DC" opacity="1.000000" stroke="none" 
	d="
M961.939209,495.359344 
	C962.625916,495.873566 963.366638,496.705048 964.000854,497.793457 
	C963.260681,497.259094 962.626953,496.467834 961.939209,495.359344 
z"/>
<path fill="#0014DC" opacity="1.000000" stroke="none" 
	d="
M969.368896,503.612793 
	C970.332275,504.042236 971.534058,504.727051 972.846802,505.763275 
	C971.840881,505.365845 970.724060,504.617035 969.368896,503.612793 
z"/>
<path fill="#0014DC" opacity="1.000000" stroke="none" 
	d="
M1019.313660,527.982300 
	C1019.916321,528.024658 1020.815979,528.216003 1021.857605,528.620361 
	C1021.203247,528.599304 1020.406982,528.365234 1019.313660,527.982300 
z"/>
<path fill="#0014DC" opacity="1.000000" stroke="none" 
	d="
M1015.313660,526.982300 
	C1015.916321,527.024658 1016.815979,527.216003 1017.857605,527.620361 
	C1017.203247,527.599304 1016.406982,527.365295 1015.313660,526.982300 
z"/>
<path fill="#0014DC" opacity="1.000000" stroke="none" 
	d="
M1173.890381,376.674255 
	C1173.443726,376.171875 1173.054199,375.343719 1172.749023,374.275940 
	C1173.204834,374.807037 1173.576172,375.577759 1173.890381,376.674255 
z"/>
<path fill="#0014DC" opacity="1.000000" stroke="none" 
	d="
M1011.313660,525.982300 
	C1011.916321,526.024719 1012.815979,526.216064 1013.857605,526.620361 
	C1013.203247,526.599304 1012.406982,526.365295 1011.313660,525.982300 
z"/>
<path fill="#0014DC" opacity="1.000000" stroke="none" 
	d="
M1171.890381,368.674316 
	C1171.443726,368.171906 1171.054077,367.343719 1170.749023,366.275940 
	C1171.204712,366.807068 1171.576172,367.577789 1171.890381,368.674316 
z"/>
<path fill="#0014DC" opacity="1.000000" stroke="none" 
	d="
M1127.956787,302.645325 
	C1127.192871,302.440765 1126.290894,301.941284 1125.221436,301.170227 
	C1125.975708,301.382568 1126.897217,301.866486 1127.956787,302.645325 
z"/>
<path fill="#0014DC" opacity="1.000000" stroke="none" 
	d="
M1124.956787,300.645325 
	C1124.192871,300.440765 1123.290894,299.941254 1122.221436,299.170258 
	C1122.975708,299.382629 1123.897217,299.866516 1124.956787,300.645325 
z"/>
<path fill="#0014DC" opacity="1.000000" stroke="none" 
	d="
M1172.890381,372.674255 
	C1172.443726,372.171906 1172.054077,371.343719 1171.749023,370.275940 
	C1172.204834,370.807037 1172.576172,371.577759 1172.890381,372.674255 
z"/>
<path fill="#0014DC" opacity="1.000000" stroke="none" 
	d="
M1043.097900,531.382568 
	C1043.560547,531.235657 1044.165527,531.358948 1044.885010,531.657837 
	C1044.413208,531.773193 1043.826660,531.713013 1043.097900,531.382568 
z"/>
<path fill="#0014DC" opacity="1.000000" stroke="none" 
	d="
M1032.097900,530.382568 
	C1032.560547,530.235596 1033.165527,530.358948 1033.885010,530.657837 
	C1033.413208,530.773193 1032.826660,530.713013 1032.097900,530.382568 
z"/>
<path fill="#0014DC" opacity="1.000000" stroke="none" 
	d="
M1025.097900,529.382568 
	C1025.560547,529.235596 1026.165527,529.358948 1026.885010,529.657837 
	C1026.413208,529.773193 1025.826660,529.713013 1025.097900,529.382568 
z"/>
<path fill="#0014DC" opacity="1.000000" stroke="none" 
	d="
M1129.908447,303.620239 
	C1129.444580,303.689484 1128.844849,303.491333 1128.150024,303.096313 
	C1128.627441,303.050568 1129.200073,303.201691 1129.908447,303.620239 
z"/>
<path fill="#0014DC" opacity="1.000000" stroke="none" 
	d="
M1134.899414,307.613892 
	C1134.425415,307.666901 1133.806396,307.446198 1133.086670,307.020996 
	C1133.575439,306.991089 1134.164917,307.165649 1134.899414,307.613892 
z"/>
<path fill="#0014DC" opacity="1.000000" stroke="none" 
	d="
M1166.062012,351.659851 
	C1165.740234,351.426056 1165.365479,350.894135 1165.048340,350.156067 
	C1165.406860,350.420532 1165.707886,350.891113 1166.062012,351.659851 
z"/>
<path fill="#0014DC" opacity="1.000000" stroke="none" 
	d="
M1168.062012,356.659851 
	C1167.740234,356.426056 1167.365479,355.894104 1167.048340,355.156036 
	C1167.406982,355.420532 1167.707886,355.891113 1168.062012,356.659851 
z"/>
<path fill="#0014DC" opacity="1.000000" stroke="none" 
	d="
M1174.891846,382.699219 
	C1174.542358,382.445801 1174.251343,381.891510 1174.033203,381.143616 
	C1174.387573,381.432800 1174.668945,381.915558 1174.891846,382.699219 
z"/>
<path fill="#000000" opacity="1.000000" stroke="none" 
	d="
M1109.142334,457.568665 
	C1109.142334,457.568665 1108.971436,457.674652 1108.680664,457.934814 
	C1107.555176,459.449158 1106.720337,460.703339 1105.885620,461.957520 
	C1103.316162,464.422546 1100.746704,466.887573 1097.704346,469.682526 
	C1096.548950,470.499969 1095.866455,470.987518 1095.184082,471.475037 
	C1095.184082,471.475037 1094.812622,471.803345 1094.400024,472.168030 
	C1090.931763,474.368225 1088.078247,476.790070 1084.781616,477.926117 
	C1075.955688,480.967438 1066.940063,483.457520 1057.999756,486.166626 
	C1056.931152,486.122803 1055.862427,486.078979 1054.045410,486.045959 
	C1052.197876,486.426727 1051.098755,486.796692 1049.999756,487.166656 
	C1045.307983,487.122711 1040.616211,487.078735 1035.090088,487.035553 
	C1033.503662,487.079773 1032.751709,487.123230 1031.999634,487.166687 
	C1030.583740,486.789612 1029.167847,486.412567 1026.960449,486.034668 
	C1025.037964,485.897797 1023.906799,485.761749 1022.775635,485.625732 
	C1022.775635,485.625732 1022.591187,485.214661 1022.000977,485.124390 
	C1016.954468,484.317749 1012.498230,483.601379 1008.041992,482.885010 
	C1007.318359,482.393555 1006.594788,481.902069 1005.282288,481.222290 
	C1004.142944,480.984344 1003.592468,480.934662 1003.041992,480.885010 
	C998.318970,478.049683 993.216553,475.691406 988.942017,472.292084 
	C974.414062,460.738495 964.818237,445.928558 960.973938,427.601501 
	C960.708862,426.337952 960.346558,425.094818 960.346680,423.290436 
	C960.123413,421.787659 959.582947,420.836609 959.042480,419.885559 
	C959.349976,416.875031 959.657471,413.864532 959.956055,410.100616 
	C959.312195,408.526672 958.677307,407.706116 958.042480,406.885559 
	C958.694946,403.714752 959.810425,400.560242 959.922729,397.370422 
	C960.529907,380.131348 965.841675,364.998871 977.476624,351.831818 
	C992.162842,335.211517 1010.665161,327.530487 1032.254883,326.006073 
	C1037.843384,325.611511 1043.441040,325.347900 1049.638672,325.339722 
	C1050.828613,325.714630 1051.414307,325.773987 1052.000122,325.833344 
	C1054.030762,325.896912 1056.061523,325.960510 1058.667480,326.339691 
	C1059.828613,326.714630 1060.414307,326.773987 1061.000122,326.833344 
	C1062.056396,326.896881 1063.112671,326.960358 1064.705811,327.339600 
	C1065.828613,327.714661 1066.414307,327.774017 1067.000122,327.833344 
	C1067.169312,327.866699 1067.338623,327.900024 1068.095703,328.060486 
	C1077.774902,332.496582 1086.866211,336.805573 1095.957642,341.114563 
	C1096.426514,341.412750 1096.895508,341.710938 1097.772949,342.330994 
	C1098.773560,343.140106 1099.365479,343.627258 1099.957520,344.114441 
	C1102.401001,346.663879 1104.844604,349.213318 1107.640625,352.218994 
	C1108.624634,353.465057 1109.256348,354.254883 1109.888062,355.044678 
	C1109.954956,355.389648 1110.130737,355.665161 1110.708496,356.313934 
	C1114.723389,365.550781 1118.445068,374.344879 1122.166748,383.138947 
	C1122.232666,383.688385 1122.298706,384.237854 1122.670410,385.169495 
	C1123.039673,386.414307 1123.103149,387.276886 1123.166748,388.139496 
	C1123.233643,388.689667 1123.300537,389.239868 1123.672119,390.211151 
	C1124.040283,391.421661 1124.103394,392.211029 1124.166626,393.000427 
	C1124.188354,395.187225 1124.210083,397.374054 1124.604736,400.170715 
	C1125.040649,401.520538 1125.103638,402.260468 1125.166626,403.000427 
	C1125.122681,405.044373 1125.078735,407.088318 1125.024170,409.913757 
	C1124.731323,411.796997 1124.448975,412.898682 1124.166626,414.000397 
	C1124.122681,415.716949 1124.078735,417.433502 1124.016479,419.971008 
	C1123.668457,421.873932 1123.194824,422.934570 1123.031006,424.041077 
	C1121.204102,436.383331 1116.364746,447.467010 1109.142334,457.568665 
z"/>
<path fill="#0014DC" opacity="1.000000" stroke="none" 
	d="
M1109.553711,457.601746 
	C1116.364746,447.467010 1121.204102,436.383331 1123.031006,424.041077 
	C1123.194824,422.934570 1123.668457,421.873932 1124.082397,420.395874 
	C1128.362183,421.306488 1125.341309,424.133423 1125.269287,426.129272 
	C1124.922729,435.731201 1121.514160,444.471771 1116.516968,452.503418 
	C1115.140259,454.716156 1112.192261,455.951233 1109.553711,457.601746 
z"/>
<path fill="#0014DC" opacity="1.000000" stroke="none" 
	d="
M1058.119629,486.436340 
	C1066.940063,483.457520 1075.955688,480.967438 1084.781616,477.926117 
	C1088.078247,476.790070 1090.931763,474.368225 1094.236694,472.354462 
	C1094.255249,473.488098 1094.496460,475.447968 1093.721313,476.012573 
	C1084.921997,482.422028 1075.234253,486.737061 1064.199341,487.335693 
	C1062.229980,487.442505 1060.227051,486.931671 1058.119629,486.436340 
z"/>
<path fill="#0014DC" opacity="1.000000" stroke="none" 
	d="
M1122.485352,382.983826 
	C1118.445068,374.344879 1114.723389,365.550781 1110.943359,356.399384 
	C1112.593506,357.483398 1114.949219,358.592804 1115.890137,360.427673 
	C1118.822632,366.146332 1121.371704,372.080505 1123.702393,378.073792 
	C1124.198486,379.349426 1123.144043,381.227936 1122.485352,382.983826 
z"/>
<path fill="#0014DC" opacity="1.000000" stroke="none" 
	d="
M1095.885132,340.767578 
	C1086.866211,336.805573 1077.774902,332.496582 1068.349731,328.010498 
	C1078.657349,328.990723 1088.364502,332.211487 1095.885132,340.767578 
z"/>
<path fill="#0014DC" opacity="1.000000" stroke="none" 
	d="
M1008.165222,483.120972 
	C1012.498230,483.601379 1016.954468,484.317749 1021.776978,485.100403 
	C1021.340210,485.847870 1020.339600,487.250671 1019.766052,487.093658 
	C1015.889709,486.032501 1012.103699,484.641327 1008.165222,483.120972 
z"/>
<path fill="#0014DC" opacity="1.000000" stroke="none" 
	d="
M1124.485352,413.967285 
	C1124.448975,412.898682 1124.731323,411.796997 1125.090088,410.347534 
	C1125.853271,410.741028 1126.539917,411.482269 1127.226562,412.223511 
	C1126.419067,412.793732 1125.611572,413.363953 1124.485352,413.967285 
z"/>
<path fill="#0014DC" opacity="1.000000" stroke="none" 
	d="
M1106.247437,461.952576 
	C1106.720337,460.703339 1107.555176,459.449158 1108.677979,458.035309 
	C1111.529663,461.171509 1109.512573,461.816040 1106.247437,461.952576 
z"/>
<path fill="#0014DC" opacity="1.000000" stroke="none" 
	d="
M1050.124512,487.440979 
	C1051.098755,486.796692 1052.197876,486.426727 1053.648682,486.111694 
	C1053.542847,488.603271 1053.135986,491.162506 1050.124512,487.440979 
z"/>
<path fill="#0014DC" opacity="1.000000" stroke="none" 
	d="
M1022.958801,485.917358 
	C1023.906799,485.761749 1025.037964,485.897797 1026.584717,486.100220 
	C1025.753296,489.736176 1024.449463,488.135925 1022.958801,485.917358 
z"/>
<path fill="#0014DC" opacity="1.000000" stroke="none" 
	d="
M1095.557129,471.546906 
	C1095.866455,470.987518 1096.548950,470.499969 1097.558472,469.984955 
	C1098.374146,470.287811 1098.862549,470.618164 1099.351074,470.948486 
	C1098.210815,471.171906 1097.070557,471.395325 1095.557129,471.546906 
z"/>
<path fill="#0014DC" opacity="1.000000" stroke="none" 
	d="
M1032.071289,487.435608 
	C1032.751709,487.123230 1033.503662,487.079773 1034.628052,487.101501 
	C1034.366699,489.039337 1033.633057,490.381287 1032.071289,487.435608 
z"/>
<path fill="#0014DC" opacity="1.000000" stroke="none" 
	d="
M1125.437256,402.925720 
	C1125.103638,402.260468 1125.040649,401.520538 1124.931396,400.411316 
	C1126.733276,400.517395 1128.392700,401.047943 1125.437256,402.925720 
z"/>
<path fill="#0014DC" opacity="1.000000" stroke="none" 
	d="
M1124.443115,392.914185 
	C1124.103394,392.211029 1124.040283,391.421661 1123.932373,390.337830 
	C1125.539795,390.560883 1127.067749,391.115479 1124.443115,392.914185 
z"/>
<path fill="#0014DC" opacity="1.000000" stroke="none" 
	d="
M1123.449707,387.999207 
	C1123.103149,387.276886 1123.039673,386.414307 1122.930176,385.295898 
	C1123.166992,385.979675 1123.449829,386.919281 1123.449707,387.999207 
z"/>
<path fill="#0014DC" opacity="1.000000" stroke="none" 
	d="
M1109.995239,354.788574 
	C1109.256348,354.254883 1108.624634,353.465057 1107.939087,352.358673 
	C1108.624268,352.872223 1109.363281,353.702362 1109.995239,354.788574 
z"/>
<path fill="#0014DC" opacity="1.000000" stroke="none" 
	d="
M959.093506,420.218536 
	C959.582947,420.836609 960.123413,421.787659 960.389709,422.890076 
	C959.791870,422.211517 959.468201,421.381531 959.093506,420.218536 
z"/>
<path fill="#0014DC" opacity="1.000000" stroke="none" 
	d="
M958.095947,407.194641 
	C958.677307,407.706116 959.312195,408.526672 959.890198,409.673645 
	C959.272095,409.167969 958.710754,408.335846 958.095947,407.194641 
z"/>
<path fill="#0014DC" opacity="1.000000" stroke="none" 
	d="
M1099.919922,343.858521 
	C1099.365479,343.627258 1098.773560,343.140106 1098.069824,342.383972 
	C1098.599487,342.610870 1099.240845,343.106781 1099.919922,343.858521 
z"/>
<path fill="#0014DC" opacity="1.000000" stroke="none" 
	d="
M1051.885498,325.658020 
	C1051.414307,325.773987 1050.828613,325.714630 1050.100708,325.385498 
	C1050.562744,325.237976 1051.166748,325.360321 1051.885498,325.658020 
z"/>
<path fill="#0014DC" opacity="1.000000" stroke="none" 
	d="
M1060.885498,326.657990 
	C1060.414307,326.773987 1059.828613,326.714630 1059.100708,326.385468 
	C1059.562744,326.238007 1060.166748,326.360321 1060.885498,326.657990 
z"/>
<path fill="#0014DC" opacity="1.000000" stroke="none" 
	d="
M1003.173584,481.069855 
	C1003.592468,480.934662 1004.142944,480.984344 1004.962158,481.100372 
	C1004.588928,481.196075 1003.947083,481.225403 1003.173584,481.069855 
z"/>
<path fill="#0014DC" opacity="1.000000" stroke="none" 
	d="
M1066.885498,327.658020 
	C1066.414307,327.774017 1065.828613,327.714661 1065.100708,327.385498 
	C1065.562744,327.237976 1066.166748,327.360321 1066.885498,327.658020 
z"/>
</svg>