<?xml version="1.0" standalone="yes"?>
<svg xmlns="http://www.w3.org/2000/svg" width="1350" height="950">
<path style="fill:#010101; stroke:none;" d="M0 0L0 950L1350 950L1350 0L0 0z"/>
<path style="fill:#0115dd; stroke:none;" d="M830 175L830 525L878 525L878 175L830 175M912 175L912 525L952 525L957 491C979.061 514.951 1005.49 527.706 1038 530.089C1062.83 531.909 1087.23 528.996 1110 518.219C1196.48 477.289 1196.92 339.003 1115 293.439C1079.18 273.517 1031.16 274.673 995 292.753C983.024 298.741 967.34 307.778 961 320L960 320L960 175L912 175M608 448C597.686 451.996 590.217 463.271 582 470.424C579.507 472.595 574.372 476.096 575.346 480C576.513 484.683 583.52 489.661 587 492.714C598.741 503.013 611.818 511.198 626 517.691C666.581 536.272 725.4 537.439 765 515.688C797.773 497.687 816.064 450.298 793.895 417C784.093 402.277 767.504 395.272 751 391.127C721.465 383.708 690.899 385.215 661 380.576C644.882 378.075 618.935 370.707 624.355 349C628.421 332.714 647.462 326.353 662 323.611C696.992 317.012 734.424 324.524 761 349L762 349L794 318C783.456 303.073 762.859 293.953 746 288.333C707.966 275.656 662.203 274.669 625 290.721C595.935 303.261 573.889 331.098 576.089 364C580.272 426.533 652.463 423.327 699 427.83C715.945 429.47 744.389 429.799 752.811 448C763.894 471.951 731.371 485.778 713 487.833C676.388 491.93 630.321 479.688 608 448M175 285L175 635L647 635C636.795 621.136 618.833 610.422 606 598.83C578.199 573.719 551.92 547.066 526.039 520C444.771 435.01 365.465 323.011 245 292.895C221.82 287.1 198.809 285 175 285z"/>
<path style="fill:#010101; stroke:none;" d="M1034 324.424C1014.67 326.963 997.13 331.121 982.039 344.439C948.648 373.907 950.65 439.253 984 467.699C1003.98 484.74 1032.86 488.28 1058 484.715C1076.01 482.16 1093.73 473.962 1105.7 460C1143.3 416.136 1122.15 339.465 1065 326.665C1055.16 324.461 1044.03 323.106 1034 324.424z"/>
<path style="fill:#0115dd; stroke:none;" d="M659 600C666.525 610.223 679.857 617.835 690 625.37C715.459 644.283 742.315 661.416 770 676.86C892.695 745.308 1030.37 775 1170 775L1170 600L659 600z"/>
</svg>
