<svg xmlns="http://www.w3.org/2000/svg" width="1350" height="950" viewBox="0 0 1350 950" version="1.1"><path d="" stroke="none" fill="#0814dc" fill-rule="evenodd"/><path d="M 830 350 L 830 525 854 525 L 878 525 878 350 L 878 175 854 175 L 830 175 830 350 M 912 350 L 912 525 931.889 525 L 951.777 525 952.330 521.750 C 952.635 519.962, 953.665 512.425, 954.621 505 C 955.576 497.575, 956.506 491.309, 956.686 491.076 C 956.867 490.843, 960.949 494.476, 965.757 499.150 C 975.738 508.850, 980.240 512.103, 991.500 517.750 C 1009.391 526.723, 1026.798 530.374, 1051.500 530.335 C 1070.994 530.305, 1082.044 528.496, 1098.231 522.686 C 1138.433 508.257, 1166.585 473.270, 1173.592 429.031 C 1175.824 414.934, 1175.082 385.354, 1172.186 373 C 1165.076 342.675, 1150.680 319.458, 1128.732 302.919 C 1090.042 273.765, 1031.101 271.325, 987.745 297.082 C 979.886 301.751, 969.372 310.231, 963.793 316.401 L 960.085 320.500 960.043 247.750 L 960 175 936 175 L 912 175 912 350 M 669.050 280.086 C 621.115 284.702, 588.069 307.321, 578.818 341.846 C 576.086 352.045, 575.888 369.908, 578.414 378.500 C 584.286 398.479, 598.839 411.169, 624.189 418.416 C 637.847 422.320, 648.773 423.716, 695.500 427.522 C 727.373 430.119, 743.174 434.544, 749.974 442.777 C 758.467 453.058, 755.641 468.016, 743.468 477.221 C 738.224 481.186, 728.490 485.070, 718.500 487.182 C 709.235 489.141, 684.222 488.817, 674 486.606 C 649.667 481.341, 627.533 469.566, 612.071 453.660 L 606.642 448.075 602.071 452.234 C 599.557 454.521, 592.143 461.499, 585.596 467.740 L 573.693 479.087 582.681 487.794 C 603.522 507.979, 628.411 521.128, 656.884 526.995 C 673.104 530.337, 691.924 531.485, 708.778 530.161 C 742.718 527.494, 765.685 518.597, 782.515 501.596 C 791.648 492.370, 796.645 483.827, 800.143 471.455 C 803.180 460.716, 803.246 441.775, 800.282 431.787 C 793.062 407.464, 771.117 393.252, 732 387.568 C 726.225 386.729, 709.800 385.116, 695.500 383.983 C 657.265 380.955, 643.266 378.350, 634.084 372.553 C 623.179 365.669, 620.475 353.397, 627.298 341.754 C 633.680 330.864, 649.989 324.022, 674.250 322.056 C 702.716 319.750, 728.591 325.356, 747.679 337.965 C 752.530 341.170, 757.572 344.943, 758.882 346.351 L 761.263 348.909 777.718 333.205 L 794.173 317.500 789.336 313.163 C 761.735 288.413, 715.270 275.635, 669.050 280.086 M 175 459.852 L 175 635 411.214 635 C 612.450 635, 647.212 634.795, 645.964 633.616 C 645.159 632.854, 639.100 627.756, 632.500 622.287 C 590.080 587.131, 552.135 549.367, 476.975 467.500 C 428.038 414.196, 388.927 375.940, 359.500 352.593 C 306.239 310.336, 248.884 287.395, 191.250 285.296 L 175 284.704 175 459.852 M 1031 324.630 C 1013.635 327.117, 1003.004 330.423, 993.178 336.392 C 973.141 348.564, 961.331 369.045, 959.099 395.491 C 956.707 423.847, 964.003 447.114, 980.445 463.555 C 990.095 473.205, 1000.148 478.819, 1014.776 482.726 C 1023.381 485.024, 1026.398 485.323, 1041 485.323 C 1055.602 485.323, 1058.619 485.024, 1067.224 482.726 C 1091.496 476.243, 1108.733 461.446, 1117.421 439.635 C 1127.683 413.873, 1124.945 378.912, 1110.998 357.618 C 1098.844 339.062, 1079.955 328.264, 1054.026 325.050 C 1045.908 324.044, 1036.316 323.869, 1031 324.630 M 662 603.113 C 663.925 604.780, 673.434 612.145, 683.130 619.478 C 797.167 705.729, 928.490 756.222, 1077 770.917 C 1105.303 773.718, 1128.530 775, 1150.961 775 L 1170 775 1170 687.500 L 1170 600 914.250 600.041 L 658.500 600.081 662 603.113" stroke="none" fill="#0414dc" fill-rule="evenodd"/></svg>